<mxfile host="65bd71144e">
    <diagram id="N2u7bMUeYD1VRqtCWKFS" name="Page-1">
        <mxGraphModel dx="2004" dy="1447" grid="0" gridSize="10" guides="1" tooltips="1" connect="1" arrows="1" fold="1" page="0" pageScale="1" pageWidth="850" pageHeight="1100" background="#ffffff" math="0" shadow="1">
            <root>
                <mxCell id="0"/>
                <mxCell id="1" parent="0"/>
                <mxCell id="2" value="&lt;font style=&quot;font-size: 50px;&quot; color=&quot;#000000&quot;&gt;&lt;b&gt;STUDENT MANAGEMENT SYSTEM&lt;/b&gt;&lt;/font&gt;" style="text;html=1;align=center;verticalAlign=middle;resizable=0;points=[];autosize=1;strokeColor=none;fillColor=none;" parent="1" vertex="1">
                    <mxGeometry x="-20" y="-5" width="851" height="72" as="geometry"/>
                </mxCell>
                <mxCell id="50" style="edgeStyle=none;html=1;exitX=1;exitY=0.5;exitDx=0;exitDy=0;entryX=0;entryY=0.5;entryDx=0;entryDy=0;strokeColor=#F0768A;strokeWidth=2;fontSize=20;fontColor=#FFFFFF;" parent="1" source="3" target="5" edge="1">
                    <mxGeometry relative="1" as="geometry"/>
                </mxCell>
                <mxCell id="51" style="edgeStyle=none;html=1;exitX=0.5;exitY=1;exitDx=0;exitDy=0;entryX=0.5;entryY=0;entryDx=0;entryDy=0;strokeColor=#F0768A;strokeWidth=2;fontSize=20;fontColor=#FFFFFF;" parent="1" source="3" target="6" edge="1">
                    <mxGeometry relative="1" as="geometry"/>
                </mxCell>
                <mxCell id="3" value="&lt;font color=&quot;#ffffff&quot;&gt;Student Registration&lt;/font&gt;" style="whiteSpace=wrap;html=1;fontSize=20;fontColor=#000000;fillColor=#060B85;gradientColor=none;fillStyle=auto;" parent="1" vertex="1">
                    <mxGeometry x="355" y="383" width="120" height="60" as="geometry"/>
                </mxCell>
                <mxCell id="49" style="edgeStyle=none;html=1;exitX=1;exitY=0.5;exitDx=0;exitDy=0;entryX=0;entryY=0.5;entryDx=0;entryDy=0;strokeColor=#F0768A;strokeWidth=2;fontSize=20;fontColor=#FFFFFF;" parent="1" source="4" target="3" edge="1">
                    <mxGeometry relative="1" as="geometry"/>
                </mxCell>
                <mxCell id="4" value="&lt;font color=&quot;#ffffff&quot;&gt;Student&lt;/font&gt;" style="whiteSpace=wrap;html=1;fontSize=20;fontColor=#000000;fillColor=#060B85;gradientColor=none;fillStyle=auto;" parent="1" vertex="1">
                    <mxGeometry x="-3" y="380" width="120" height="60" as="geometry"/>
                </mxCell>
                <mxCell id="5" value="&lt;font color=&quot;#ffffff&quot;&gt;Courses Offered&lt;/font&gt;" style="whiteSpace=wrap;html=1;fontSize=20;fontColor=#000000;fillColor=#060B85;gradientColor=none;fillStyle=auto;" parent="1" vertex="1">
                    <mxGeometry x="713" y="380" width="120" height="60" as="geometry"/>
                </mxCell>
                <mxCell id="58" style="edgeStyle=none;html=1;exitX=0.5;exitY=1;exitDx=0;exitDy=0;entryX=0.5;entryY=0;entryDx=0;entryDy=0;strokeColor=#F0768A;strokeWidth=2;fontSize=20;fontColor=#FFFFFF;" parent="1" source="6" target="7" edge="1">
                    <mxGeometry relative="1" as="geometry"/>
                </mxCell>
                <mxCell id="6" value="&lt;font color=&quot;#ffffff&quot;&gt;Staff&lt;/font&gt;" style="whiteSpace=wrap;html=1;fontSize=20;fontColor=#000000;fillColor=#060B85;gradientColor=none;fillStyle=auto;" parent="1" vertex="1">
                    <mxGeometry x="355" y="673" width="120" height="60" as="geometry"/>
                </mxCell>
                <mxCell id="67" style="edgeStyle=none;html=1;exitX=1;exitY=0.5;exitDx=0;exitDy=0;strokeColor=#F0768A;strokeWidth=2;fontSize=20;fontColor=#FFFFFF;" parent="1" source="7" target="8" edge="1">
                    <mxGeometry relative="1" as="geometry"/>
                </mxCell>
                <mxCell id="68" style="edgeStyle=none;html=1;exitX=0;exitY=0.5;exitDx=0;exitDy=0;entryX=1;entryY=0.5;entryDx=0;entryDy=0;strokeColor=#F0768A;strokeWidth=2;fontSize=20;fontColor=#FFFFFF;" parent="1" source="7" target="9" edge="1">
                    <mxGeometry relative="1" as="geometry"/>
                </mxCell>
                <mxCell id="69" style="edgeStyle=none;html=1;exitX=0.5;exitY=1;exitDx=0;exitDy=0;entryX=0.5;entryY=0;entryDx=0;entryDy=0;strokeColor=#F0768A;strokeWidth=2;fontSize=20;fontColor=#FFFFFF;" parent="1" source="7" target="65" edge="1">
                    <mxGeometry relative="1" as="geometry"/>
                </mxCell>
                <mxCell id="70" style="edgeStyle=none;html=1;exitX=0.5;exitY=1;exitDx=0;exitDy=0;entryX=0.5;entryY=0;entryDx=0;entryDy=0;strokeColor=#F0768A;strokeWidth=2;fontSize=20;fontColor=#FFFFFF;" parent="1" source="7" target="66" edge="1">
                    <mxGeometry relative="1" as="geometry"/>
                </mxCell>
                <mxCell id="7" value="&lt;font color=&quot;#ffffff&quot;&gt;Staff Department&lt;/font&gt;" style="whiteSpace=wrap;html=1;fontSize=20;fontColor=#000000;fillColor=#060B85;gradientColor=none;fillStyle=auto;" parent="1" vertex="1">
                    <mxGeometry x="355" y="971" width="120" height="60" as="geometry"/>
                </mxCell>
                <mxCell id="8" value="&lt;font color=&quot;#ffffff&quot;&gt;Project Transaction&lt;/font&gt;" style="whiteSpace=wrap;html=1;fontSize=20;fontColor=#000000;fillColor=#060B85;gradientColor=none;fillStyle=auto;" parent="1" vertex="1">
                    <mxGeometry x="713" y="971" width="120" height="60" as="geometry"/>
                </mxCell>
                <mxCell id="9" value="&lt;font color=&quot;#ffffff&quot;&gt;Reports&lt;/font&gt;" style="whiteSpace=wrap;html=1;fontSize=20;fontColor=#000000;fillColor=#060B85;gradientColor=none;fillStyle=auto;" parent="1" vertex="1">
                    <mxGeometry x="-3" y="971" width="120" height="60" as="geometry"/>
                </mxCell>
                <mxCell id="15" style="edgeStyle=none;html=1;exitX=0.5;exitY=1;exitDx=0;exitDy=0;entryX=0.5;entryY=0;entryDx=0;entryDy=0;fontSize=20;fontColor=#FFFFFF;strokeWidth=2;strokeColor=#F0768A;" parent="1" source="10" target="3" edge="1">
                    <mxGeometry relative="1" as="geometry"/>
                </mxCell>
                <mxCell id="10" value="26/04/2024" style="ellipse;whiteSpace=wrap;html=1;fillStyle=auto;fontSize=20;fontColor=#ffffff;fillColor=#1ba1e2;strokeColor=#006EAF;" parent="1" vertex="1">
                    <mxGeometry x="360.5" y="220" width="109" height="51" as="geometry"/>
                </mxCell>
                <mxCell id="16" style="edgeStyle=none;html=1;exitX=0.5;exitY=1;exitDx=0;exitDy=0;entryX=1;entryY=0;entryDx=0;entryDy=0;strokeColor=#F0768A;strokeWidth=2;fontSize=20;fontColor=#FFFFFF;" parent="1" source="11" target="3" edge="1">
                    <mxGeometry relative="1" as="geometry"/>
                </mxCell>
                <mxCell id="11" value="2063" style="ellipse;whiteSpace=wrap;html=1;fillStyle=auto;fontSize=20;fontColor=#ffffff;fillColor=#1ba1e2;strokeColor=#006EAF;" parent="1" vertex="1">
                    <mxGeometry x="506" y="281" width="109" height="51" as="geometry"/>
                </mxCell>
                <mxCell id="19" style="edgeStyle=none;html=1;exitX=0.5;exitY=1;exitDx=0;exitDy=0;entryX=0;entryY=0;entryDx=0;entryDy=0;strokeColor=#F0768A;strokeWidth=2;fontSize=20;fontColor=#FFFFFF;" parent="1" source="12" target="3" edge="1">
                    <mxGeometry relative="1" as="geometry"/>
                </mxCell>
                <mxCell id="12" value="23550" style="ellipse;whiteSpace=wrap;html=1;fillStyle=auto;fontSize=20;fontColor=#ffffff;fillColor=#1ba1e2;strokeColor=#006EAF;" parent="1" vertex="1">
                    <mxGeometry x="218" y="281" width="109" height="51" as="geometry"/>
                </mxCell>
                <mxCell id="18" style="edgeStyle=none;html=1;exitX=0.5;exitY=1;exitDx=0;exitDy=0;entryX=0.25;entryY=0;entryDx=0;entryDy=0;strokeColor=#F0768A;strokeWidth=2;fontSize=20;fontColor=#FFFFFF;" parent="1" source="13" target="3" edge="1">
                    <mxGeometry relative="1" as="geometry"/>
                </mxCell>
                <mxCell id="13" value="A.Adarsh Jagannath" style="ellipse;whiteSpace=wrap;html=1;fillStyle=auto;fontSize=20;fontColor=#ffffff;fillColor=#1ba1e2;strokeColor=#006EAF;" parent="1" vertex="1">
                    <mxGeometry x="218" y="147" width="109" height="51" as="geometry"/>
                </mxCell>
                <mxCell id="17" style="edgeStyle=none;html=1;exitX=0.5;exitY=1;exitDx=0;exitDy=0;entryX=0.75;entryY=0;entryDx=0;entryDy=0;strokeColor=#F0768A;strokeWidth=2;fontSize=20;fontColor=#FFFFFF;" parent="1" source="14" target="3" edge="1">
                    <mxGeometry relative="1" as="geometry"/>
                </mxCell>
                <mxCell id="14" value="23550" style="ellipse;whiteSpace=wrap;html=1;fillStyle=auto;fontSize=20;fontColor=#ffffff;fillColor=#1ba1e2;strokeColor=#006EAF;" parent="1" vertex="1">
                    <mxGeometry x="506" y="147" width="109" height="51" as="geometry"/>
                </mxCell>
                <mxCell id="30" style="edgeStyle=none;html=1;exitX=0.5;exitY=1;exitDx=0;exitDy=0;entryX=0.5;entryY=0;entryDx=0;entryDy=0;strokeColor=#F0768A;strokeWidth=2;fontSize=20;fontColor=#FFFFFF;" parent="1" source="20" target="4" edge="1">
                    <mxGeometry relative="1" as="geometry"/>
                </mxCell>
                <mxCell id="20" value="Adarsh" style="ellipse;whiteSpace=wrap;html=1;fillStyle=auto;fontSize=20;fontColor=#ffffff;fillColor=#1ba1e2;strokeColor=#006EAF;" parent="1" vertex="1">
                    <mxGeometry x="8" y="215" width="109" height="51" as="geometry"/>
                </mxCell>
                <mxCell id="34" style="edgeStyle=none;html=1;exitX=1;exitY=1;exitDx=0;exitDy=0;strokeColor=#F0768A;strokeWidth=2;fontSize=20;fontColor=#FFFFFF;" parent="1" source="21" edge="1">
                    <mxGeometry relative="1" as="geometry">
                        <mxPoint x="46" y="383" as="targetPoint"/>
                    </mxGeometry>
                </mxCell>
                <mxCell id="21" value="A.Adarsh Jagannath" style="ellipse;whiteSpace=wrap;html=1;fillStyle=auto;fontSize=20;fontColor=#ffffff;fillColor=#1ba1e2;strokeColor=#006EAF;" parent="1" vertex="1">
                    <mxGeometry x="-120" y="186" width="109" height="51" as="geometry"/>
                </mxCell>
                <mxCell id="31" style="edgeStyle=none;html=1;exitX=0.5;exitY=1;exitDx=0;exitDy=0;entryX=0.25;entryY=0;entryDx=0;entryDy=0;strokeColor=#F0768A;strokeWidth=2;fontSize=20;fontColor=#FFFFFF;" parent="1" source="22" target="4" edge="1">
                    <mxGeometry relative="1" as="geometry"/>
                </mxCell>
                <mxCell id="22" value="Jagannath" style="ellipse;whiteSpace=wrap;html=1;fillStyle=auto;fontSize=20;fontColor=#ffffff;fillColor=#1ba1e2;strokeColor=#006EAF;" parent="1" vertex="1">
                    <mxGeometry x="-100" y="294" width="109" height="51" as="geometry"/>
                </mxCell>
                <mxCell id="35" style="edgeStyle=none;html=1;exitX=0.5;exitY=1;exitDx=0;exitDy=0;entryX=0;entryY=0;entryDx=0;entryDy=0;strokeColor=#F0768A;strokeWidth=2;fontSize=20;fontColor=#FFFFFF;" parent="1" source="23" target="4" edge="1">
                    <mxGeometry relative="1" as="geometry"/>
                </mxCell>
                <mxCell id="23" value="B.Tech" style="ellipse;whiteSpace=wrap;html=1;fillStyle=auto;fontSize=20;fontColor=#ffffff;fillColor=#1ba1e2;strokeColor=#006EAF;" parent="1" vertex="1">
                    <mxGeometry x="-242" y="266" width="109" height="51" as="geometry"/>
                </mxCell>
                <mxCell id="36" style="edgeStyle=none;html=1;exitX=1;exitY=0.5;exitDx=0;exitDy=0;entryX=0;entryY=0.25;entryDx=0;entryDy=0;strokeColor=#F0768A;strokeWidth=2;fontSize=20;fontColor=#FFFFFF;" parent="1" source="24" target="4" edge="1">
                    <mxGeometry relative="1" as="geometry"/>
                </mxCell>
                <mxCell id="24" value="2024" style="ellipse;whiteSpace=wrap;html=1;fillStyle=auto;fontSize=20;fontColor=#ffffff;fillColor=#1ba1e2;strokeColor=#006EAF;" parent="1" vertex="1">
                    <mxGeometry x="-271" y="349" width="109" height="51" as="geometry"/>
                </mxCell>
                <mxCell id="37" style="edgeStyle=none;html=1;exitX=1;exitY=0.5;exitDx=0;exitDy=0;entryX=0;entryY=1;entryDx=0;entryDy=0;strokeColor=#F0768A;strokeWidth=2;fontSize=20;fontColor=#FFFFFF;" parent="1" source="25" target="4" edge="1">
                    <mxGeometry relative="1" as="geometry"/>
                </mxCell>
                <mxCell id="25" value="7326988411" style="ellipse;whiteSpace=wrap;html=1;fillStyle=auto;fontSize=20;fontColor=#ffffff;fillColor=#1ba1e2;strokeColor=#006EAF;" parent="1" vertex="1">
                    <mxGeometry x="-260" y="448" width="109" height="51" as="geometry"/>
                </mxCell>
                <mxCell id="32" style="edgeStyle=none;html=1;exitX=1;exitY=0.5;exitDx=0;exitDy=0;entryX=0;entryY=0.5;entryDx=0;entryDy=0;strokeColor=#F0768A;strokeWidth=2;fontSize=20;fontColor=#FFFFFF;" parent="1" source="26" target="4" edge="1">
                    <mxGeometry relative="1" as="geometry"/>
                </mxCell>
                <mxCell id="26" value="15/06/2006" style="ellipse;whiteSpace=wrap;html=1;fillStyle=auto;fontSize=20;fontColor=#ffffff;fillColor=#1ba1e2;strokeColor=#006EAF;" parent="1" vertex="1">
                    <mxGeometry x="-146" y="392" width="109" height="51" as="geometry"/>
                </mxCell>
                <mxCell id="33" style="edgeStyle=none;html=1;exitX=0.5;exitY=0;exitDx=0;exitDy=0;entryX=0.5;entryY=1;entryDx=0;entryDy=0;strokeColor=#F0768A;strokeWidth=2;fontSize=20;fontColor=#FFFFFF;" parent="1" source="27" target="4" edge="1">
                    <mxGeometry relative="1" as="geometry"/>
                </mxCell>
                <mxCell id="27" value="1" style="ellipse;whiteSpace=wrap;html=1;fillStyle=auto;fontSize=20;fontColor=#ffffff;fillColor=#1ba1e2;strokeColor=#006EAF;" parent="1" vertex="1">
                    <mxGeometry x="-11" y="504" width="109" height="51" as="geometry"/>
                </mxCell>
                <mxCell id="38" style="edgeStyle=none;html=1;exitX=1;exitY=0.5;exitDx=0;exitDy=0;entryX=0.25;entryY=1;entryDx=0;entryDy=0;strokeColor=#F0768A;strokeWidth=2;fontSize=20;fontColor=#FFFFFF;" parent="1" source="28" target="4" edge="1">
                    <mxGeometry relative="1" as="geometry"/>
                </mxCell>
                <mxCell id="28" value="Male" style="ellipse;whiteSpace=wrap;html=1;fillStyle=auto;fontSize=20;fontColor=#ffffff;fillColor=#1ba1e2;strokeColor=#006EAF;" parent="1" vertex="1">
                    <mxGeometry x="-195" y="528" width="109" height="51" as="geometry"/>
                </mxCell>
                <mxCell id="48" style="edgeStyle=none;html=1;exitX=0.5;exitY=1;exitDx=0;exitDy=0;entryX=0.5;entryY=0;entryDx=0;entryDy=0;strokeColor=#F0768A;strokeWidth=2;fontSize=20;fontColor=#FFFFFF;" parent="1" source="41" target="5" edge="1">
                    <mxGeometry relative="1" as="geometry"/>
                </mxCell>
                <mxCell id="41" value="B.Tech" style="ellipse;whiteSpace=wrap;html=1;fillStyle=auto;fontSize=20;fontColor=#ffffff;fillColor=#1ba1e2;strokeColor=#006EAF;" parent="1" vertex="1">
                    <mxGeometry x="718.5" y="249" width="109" height="51" as="geometry"/>
                </mxCell>
                <mxCell id="47" style="edgeStyle=none;html=1;exitX=0;exitY=0.5;exitDx=0;exitDy=0;entryX=1;entryY=0;entryDx=0;entryDy=0;strokeColor=#F0768A;strokeWidth=2;fontSize=20;fontColor=#FFFFFF;" parent="1" source="42" target="5" edge="1">
                    <mxGeometry relative="1" as="geometry"/>
                </mxCell>
                <mxCell id="42" value="CSE" style="ellipse;whiteSpace=wrap;html=1;fillStyle=auto;fontSize=20;fontColor=#ffffff;fillColor=#1ba1e2;strokeColor=#006EAF;" parent="1" vertex="1">
                    <mxGeometry x="877" y="287" width="109" height="51" as="geometry"/>
                </mxCell>
                <mxCell id="46" style="edgeStyle=none;html=1;exitX=0;exitY=0.5;exitDx=0;exitDy=0;entryX=1;entryY=0.5;entryDx=0;entryDy=0;strokeColor=#F0768A;strokeWidth=2;fontSize=20;fontColor=#FFFFFF;" parent="1" source="43" target="5" edge="1">
                    <mxGeometry relative="1" as="geometry"/>
                </mxCell>
                <mxCell id="43" value="Core" style="ellipse;whiteSpace=wrap;html=1;fillStyle=auto;fontSize=20;fontColor=#ffffff;fillColor=#1ba1e2;strokeColor=#006EAF;" parent="1" vertex="1">
                    <mxGeometry x="912" y="384.5" width="109" height="51" as="geometry"/>
                </mxCell>
                <mxCell id="45" style="edgeStyle=none;html=1;exitX=0;exitY=0.5;exitDx=0;exitDy=0;entryX=1;entryY=1;entryDx=0;entryDy=0;strokeColor=#F0768A;strokeWidth=2;fontSize=20;fontColor=#FFFFFF;" parent="1" source="44" target="5" edge="1">
                    <mxGeometry relative="1" as="geometry"/>
                </mxCell>
                <mxCell id="44" value="Rhinos" style="ellipse;whiteSpace=wrap;html=1;fillStyle=auto;fontSize=20;fontColor=#ffffff;fillColor=#1ba1e2;strokeColor=#006EAF;" parent="1" vertex="1">
                    <mxGeometry x="887" y="495" width="109" height="51" as="geometry"/>
                </mxCell>
                <mxCell id="59" style="edgeStyle=none;html=1;exitX=0;exitY=0.5;exitDx=0;exitDy=0;entryX=1;entryY=0;entryDx=0;entryDy=0;strokeColor=#F0768A;strokeWidth=2;fontSize=20;fontColor=#FFFFFF;" parent="1" source="52" target="6" edge="1">
                    <mxGeometry relative="1" as="geometry"/>
                </mxCell>
                <mxCell id="52" value="654564687" style="ellipse;whiteSpace=wrap;html=1;fillStyle=auto;fontSize=20;fontColor=#ffffff;fillColor=#1ba1e2;strokeColor=#006EAF;" parent="1" vertex="1">
                    <mxGeometry x="521" y="571" width="109" height="51" as="geometry"/>
                </mxCell>
                <mxCell id="60" style="edgeStyle=none;html=1;exitX=0;exitY=0.5;exitDx=0;exitDy=0;entryX=1;entryY=0.5;entryDx=0;entryDy=0;strokeColor=#F0768A;strokeWidth=2;fontSize=20;fontColor=#FFFFFF;" parent="1" source="53" target="6" edge="1">
                    <mxGeometry relative="1" as="geometry"/>
                </mxCell>
                <mxCell id="53" value="India" style="ellipse;whiteSpace=wrap;html=1;fillStyle=auto;fontSize=20;fontColor=#ffffff;fillColor=#1ba1e2;strokeColor=#006EAF;" parent="1" vertex="1">
                    <mxGeometry x="598" y="677.5" width="109" height="51" as="geometry"/>
                </mxCell>
                <mxCell id="61" style="edgeStyle=none;html=1;exitX=0;exitY=0.5;exitDx=0;exitDy=0;entryX=1;entryY=1;entryDx=0;entryDy=0;strokeColor=#F0768A;strokeWidth=2;fontSize=20;fontColor=#FFFFFF;" parent="1" source="54" target="6" edge="1">
                    <mxGeometry relative="1" as="geometry"/>
                </mxCell>
                <mxCell id="54" value="Male" style="ellipse;whiteSpace=wrap;html=1;fillStyle=auto;fontSize=20;fontColor=#ffffff;fillColor=#1ba1e2;strokeColor=#006EAF;" parent="1" vertex="1">
                    <mxGeometry x="521" y="784" width="109" height="51" as="geometry"/>
                </mxCell>
                <mxCell id="64" style="edgeStyle=none;html=1;exitX=1;exitY=0.5;exitDx=0;exitDy=0;entryX=0;entryY=1;entryDx=0;entryDy=0;strokeColor=#F0768A;strokeWidth=2;fontSize=20;fontColor=#FFFFFF;" parent="1" source="55" target="6" edge="1">
                    <mxGeometry relative="1" as="geometry"/>
                </mxCell>
                <mxCell id="55" value="Arav" style="ellipse;whiteSpace=wrap;html=1;fillStyle=auto;fontSize=20;fontColor=#ffffff;fillColor=#1ba1e2;strokeColor=#006EAF;" parent="1" vertex="1">
                    <mxGeometry x="170" y="786" width="109" height="51" as="geometry"/>
                </mxCell>
                <mxCell id="63" style="edgeStyle=none;html=1;exitX=1;exitY=0.5;exitDx=0;exitDy=0;entryX=0;entryY=0.5;entryDx=0;entryDy=0;strokeColor=#F0768A;strokeWidth=2;fontSize=20;fontColor=#FFFFFF;" parent="1" source="56" target="6" edge="1">
                    <mxGeometry relative="1" as="geometry"/>
                </mxCell>
                <mxCell id="56" value="Arnavi" style="ellipse;whiteSpace=wrap;html=1;fillStyle=auto;fontSize=20;fontColor=#ffffff;fillColor=#1ba1e2;strokeColor=#006EAF;" parent="1" vertex="1">
                    <mxGeometry x="71" y="677.5" width="109" height="51" as="geometry"/>
                </mxCell>
                <mxCell id="62" style="edgeStyle=none;html=1;exitX=1;exitY=0.5;exitDx=0;exitDy=0;entryX=0;entryY=0;entryDx=0;entryDy=0;strokeColor=#F0768A;strokeWidth=2;fontSize=20;fontColor=#FFFFFF;" parent="1" source="57" target="6" edge="1">
                    <mxGeometry relative="1" as="geometry"/>
                </mxCell>
                <mxCell id="57" value="58486" style="ellipse;whiteSpace=wrap;html=1;fillStyle=auto;fontSize=20;fontColor=#ffffff;fillColor=#1ba1e2;strokeColor=#006EAF;" parent="1" vertex="1">
                    <mxGeometry x="170" y="571" width="109" height="51" as="geometry"/>
                </mxCell>
                <mxCell id="65" value="6446" style="ellipse;whiteSpace=wrap;html=1;fillStyle=auto;fontSize=20;fontColor=#ffffff;fillColor=#1ba1e2;strokeColor=#006EAF;" parent="1" vertex="1">
                    <mxGeometry x="251.5" y="1125" width="109" height="51" as="geometry"/>
                </mxCell>
                <mxCell id="66" value="4 Years" style="ellipse;whiteSpace=wrap;html=1;fillStyle=auto;fontSize=20;fontColor=#ffffff;fillColor=#1ba1e2;strokeColor=#006EAF;" parent="1" vertex="1">
                    <mxGeometry x="469.5" y="1125" width="109" height="51" as="geometry"/>
                </mxCell>
                <mxCell id="75" style="edgeStyle=none;html=1;exitX=0.5;exitY=1;exitDx=0;exitDy=0;entryX=0.5;entryY=0;entryDx=0;entryDy=0;strokeColor=#F0768A;strokeWidth=2;fontSize=20;fontColor=#FFFFFF;" parent="1" source="71" target="9" edge="1">
                    <mxGeometry relative="1" as="geometry"/>
                </mxCell>
                <mxCell id="71" value="Internals" style="ellipse;whiteSpace=wrap;html=1;fillStyle=auto;fontSize=20;fontColor=#ffffff;fillColor=#1ba1e2;strokeColor=#006EAF;" parent="1" vertex="1">
                    <mxGeometry x="-100" y="876" width="109" height="51" as="geometry"/>
                </mxCell>
                <mxCell id="76" style="edgeStyle=none;html=1;exitX=1;exitY=0.5;exitDx=0;exitDy=0;strokeColor=#F0768A;strokeWidth=2;fontSize=20;fontColor=#FFFFFF;" parent="1" source="72" target="9" edge="1">
                    <mxGeometry relative="1" as="geometry"/>
                </mxCell>
                <mxCell id="72" value="Externals" style="ellipse;whiteSpace=wrap;html=1;fillStyle=auto;fontSize=20;fontColor=#ffffff;fillColor=#1ba1e2;strokeColor=#006EAF;" parent="1" vertex="1">
                    <mxGeometry x="-209" y="945" width="109" height="51" as="geometry"/>
                </mxCell>
                <mxCell id="77" style="edgeStyle=none;html=1;exitX=1;exitY=0.5;exitDx=0;exitDy=0;entryX=0;entryY=0.75;entryDx=0;entryDy=0;strokeColor=#F0768A;strokeWidth=2;fontSize=20;fontColor=#FFFFFF;" parent="1" source="73" target="9" edge="1">
                    <mxGeometry relative="1" as="geometry"/>
                </mxCell>
                <mxCell id="73" value="End Semester" style="ellipse;whiteSpace=wrap;html=1;fillStyle=auto;fontSize=20;fontColor=#ffffff;fillColor=#1ba1e2;strokeColor=#006EAF;" parent="1" vertex="1">
                    <mxGeometry x="-209" y="1044" width="109" height="51" as="geometry"/>
                </mxCell>
                <mxCell id="78" style="edgeStyle=none;html=1;exitX=0.5;exitY=0;exitDx=0;exitDy=0;entryX=0.5;entryY=1;entryDx=0;entryDy=0;strokeColor=#F0768A;strokeWidth=2;fontSize=20;fontColor=#FFFFFF;" parent="1" source="74" target="9" edge="1">
                    <mxGeometry relative="1" as="geometry"/>
                </mxCell>
                <mxCell id="74" value="Result" style="ellipse;whiteSpace=wrap;html=1;fillStyle=auto;fontSize=20;fontColor=#ffffff;fillColor=#1ba1e2;strokeColor=#006EAF;" parent="1" vertex="1">
                    <mxGeometry x="-100" y="1113" width="109" height="51" as="geometry"/>
                </mxCell>
                <mxCell id="88" style="edgeStyle=none;html=1;exitX=0.5;exitY=1;exitDx=0;exitDy=0;entryX=0.5;entryY=0;entryDx=0;entryDy=0;strokeColor=#F0768A;strokeWidth=2;fontSize=20;fontColor=#FFFFFF;" parent="1" source="79" target="8" edge="1">
                    <mxGeometry relative="1" as="geometry"/>
                </mxCell>
                <mxCell id="79" value="64984" style="ellipse;whiteSpace=wrap;html=1;fillStyle=auto;fontSize=20;fontColor=#ffffff;fillColor=#1ba1e2;strokeColor=#006EAF;" parent="1" vertex="1">
                    <mxGeometry x="781" y="837" width="109" height="51" as="geometry"/>
                </mxCell>
                <mxCell id="87" style="edgeStyle=none;html=1;exitX=0;exitY=0.5;exitDx=0;exitDy=0;entryX=1;entryY=0;entryDx=0;entryDy=0;strokeColor=#F0768A;strokeWidth=2;fontSize=20;fontColor=#FFFFFF;" parent="1" source="80" target="8" edge="1">
                    <mxGeometry relative="1" as="geometry"/>
                </mxCell>
                <mxCell id="80" value="Arav" style="ellipse;whiteSpace=wrap;html=1;fillStyle=auto;fontSize=20;fontColor=#ffffff;fillColor=#1ba1e2;strokeColor=#006EAF;" parent="1" vertex="1">
                    <mxGeometry x="929" y="931" width="109" height="51" as="geometry"/>
                </mxCell>
                <mxCell id="85" style="edgeStyle=none;html=1;exitX=0.5;exitY=0;exitDx=0;exitDy=0;entryX=1;entryY=1;entryDx=0;entryDy=0;strokeColor=#F0768A;strokeWidth=2;fontSize=20;fontColor=#FFFFFF;" parent="1" source="81" target="8" edge="1">
                    <mxGeometry relative="1" as="geometry"/>
                </mxCell>
                <mxCell id="81" value="6546" style="ellipse;whiteSpace=wrap;html=1;fillStyle=auto;fontSize=20;fontColor=#ffffff;fillColor=#1ba1e2;strokeColor=#006EAF;" parent="1" vertex="1">
                    <mxGeometry x="902" y="1123" width="109" height="51" as="geometry"/>
                </mxCell>
                <mxCell id="86" style="edgeStyle=none;html=1;exitX=0;exitY=0.5;exitDx=0;exitDy=0;entryX=1;entryY=0.5;entryDx=0;entryDy=0;strokeColor=#F0768A;strokeWidth=2;fontSize=20;fontColor=#FFFFFF;" parent="1" source="82" target="8" edge="1">
                    <mxGeometry relative="1" as="geometry"/>
                </mxCell>
                <mxCell id="82" value="9786" style="ellipse;whiteSpace=wrap;html=1;fillStyle=auto;fontSize=20;fontColor=#ffffff;fillColor=#1ba1e2;strokeColor=#006EAF;" parent="1" vertex="1">
                    <mxGeometry x="941" y="1007" width="109" height="51" as="geometry"/>
                </mxCell>
                <mxCell id="84" style="edgeStyle=none;html=1;exitX=0.5;exitY=0;exitDx=0;exitDy=0;entryX=0.5;entryY=1;entryDx=0;entryDy=0;strokeColor=#F0768A;strokeWidth=2;fontSize=20;fontColor=#FFFFFF;" parent="1" source="83" target="8" edge="1">
                    <mxGeometry relative="1" as="geometry"/>
                </mxCell>
                <mxCell id="83" value="26/7/2067" style="ellipse;whiteSpace=wrap;html=1;fillStyle=auto;fontSize=20;fontColor=#ffffff;fillColor=#1ba1e2;strokeColor=#006EAF;" parent="1" vertex="1">
                    <mxGeometry x="737" y="1143" width="109" height="51" as="geometry"/>
                </mxCell>
            </root>
        </mxGraphModel>
    </diagram>
</mxfile>